<?xml version="1.0" standalone="no"?>
<!DOCTYPE svg PUBLIC "-//W3C//DTD SVG 1.1//EN" "http://www.w3.org/Graphics/SVG/1.1/DTD/svg11.dtd" >
<svg xmlns="http://www.w3.org/2000/svg" xmlns:xlink="http://www.w3.org/1999/xlink" version="1.1">
<metadata></metadata>
<defs>
<font id="kirbys_adventureregular" horiz-adv-x="1536" >
<font-face units-per-em="2048" ascent="1792" descent="-256" />
<missing-glyph horiz-adv-x="512" />
<glyph horiz-adv-x="0" />
<glyph horiz-adv-x="682" />
<glyph unicode=" "  horiz-adv-x="512" />
<glyph unicode="&#x09;" horiz-adv-x="512" />
<glyph unicode="&#xa0;" horiz-adv-x="512" />
<glyph unicode="!" horiz-adv-x="1024" d="M0 0v512h512v-512h-512zM256 768v1024h512v-768h-256v-256h-256z" />
<glyph unicode="&#x22;" horiz-adv-x="1024" d="M0 1280v512h256v-512h-256zM512 1280v512h256v-512h-256z" />
<glyph unicode="%" horiz-adv-x="2304" d="M1792 256v256h-256v-256h256zM1280 0v768h768v-768h-768zM512 1280v256h-256v-256h256zM0 1024v768h768v-768h-768zM256 0v512h256v256h256v256h256v256h256v256h256v256h256v-512h-256v-256h-256v-256h-256v-256h-256v-256h-256v-256h-256z" />
<glyph unicode="'" horiz-adv-x="512" d="M0 1280v512h256v-512h-256z" />
<glyph unicode="," horiz-adv-x="768" d="M0 -256v256h256v-256h-256zM256 0v256h-256v256h512v-512h-256z" />
<glyph unicode="-" horiz-adv-x="1280" d="M0 512v256h1024v-256h-1024z" />
<glyph unicode="." horiz-adv-x="768" d="M0 0v512h512v-512h-512z" />
<glyph unicode="0" horiz-adv-x="2048" d="M512 0v256h-256v256h-256v1024h256v256h256v-1280h256v-256h512v-256h-768zM1280 256v1280h-256v256h-512v256h768v-256h256v-256h256v-1024h-256v-256h-256z" />
<glyph unicode="1" horiz-adv-x="1280" d="M0 0v256h256v1280h-256v256h256v256h512v-1792h256v-256h-1024z" />
<glyph unicode="2" horiz-adv-x="2048" d="M0 0v512h256v256h256v256h512v256h256v512h-768v-512h-512v512h256v256h1280v-256h256v-768h-256v-256h-768v-256h-256v-256h1024v256h256v-512h-1792z" />
<glyph unicode="3" horiz-adv-x="2048" d="M256 0v256h-256v512h512v-512h768v512h-512v512h512v512h-768v-512h-512v512h256v256h1280v-256h256v-512h-256v-256h256v-768h-256v-256h-1280z" />
<glyph unicode="4" horiz-adv-x="2048" d="M256 1024v256h256v-256h-256zM512 1280v256h256v-256h-256zM768 0v256h256v256h-1024v512h256v-256h768v768h-256v256h256v256h512v-1280h256v-256h-256v-256h256v-256h-1024z" />
<glyph unicode="5" horiz-adv-x="2048" d="M256 0v256h-256v512h512v-512h768v768h-1024v1024h1536v-256h-1024v-512h768v-256h256v-768h-256v-256h-1280z" />
<glyph unicode="6" horiz-adv-x="2048" d="M1280 256v768h-768v-768h768zM256 0v256h-256v1280h256v256h256v256h1024v-256h-768v-256h-256v-256h1024v-256h256v-768h-256v-256h-1280z" />
<glyph unicode="7" horiz-adv-x="2048" d="M512 0v512h256v512h256v256h256v512h-768v-256h-256v-256h-256v512h256v256h1536v-512h-256v-512h-256v-512h-256v-512h-512z" />
<glyph unicode="8" horiz-adv-x="2048" d="M1280 256v768h-768v-768h768zM1280 1280v512h-768v-512h768zM256 0v256h-256v768h256v256h-256v512h256v256h1280v-256h256v-512h-256v-256h256v-768h-256v-256h-1280z" />
<glyph unicode="9" horiz-adv-x="2048" d="M1280 1024v768h-768v-768h768zM256 0v256h768v256h256v256h-1024v256h-256v768h256v256h1280v-256h256v-1280h-256v-256h-256v-256h-1024z" />
<glyph unicode="?" d="M512 0v256h256v-256h-256zM512 512v512h512v-256h-256v-256h-256zM0 1280v512h256v-512h-256zM1024 1024v768h256v-768h-256zM256 1792v256h768v-256h-768z" />
<glyph unicode="A" d="M0 0v768h256v-768h-256zM1024 0v768h-768v768h256v-512h512v512h256v-1536h-256zM512 1536v256h512v-256h-512z" />
<glyph unicode="B" d="M0 0v768h256v-512h768v-256h-1024zM1024 256v512h256v-512h-256zM1024 1024v512h256v-512h-256zM256 768v1024h768v-256h-512v-512h512v-256h-768z" />
<glyph unicode="C" d="M256 0v256h768v-256h-768zM1024 256v256h256v-256h-256zM0 256v768h256v-768h-256zM256 1024v512h256v-512h-256zM1024 1280v256h256v-256h-256zM512 1536v256h512v-256h-512z" />
<glyph unicode="D" d="M0 0v768h256v-512h768v-256h-1024zM1024 256v1024h256v-1024h-256zM768 1280v256h256v-256h-256zM256 768v768h-256v256h768v-256h-256v-768h-256z" />
<glyph unicode="E" d="M0 0v768h256v-512h768v-256h-1024zM256 768v1024h1024v-256h-768v-512h512v-256h-768z" />
<glyph unicode="F" d="M0 0v768h256v-768h-256zM256 768v1024h1024v-256h-768v-512h512v-256h-768z" />
<glyph unicode="G" d="M0 256v768h256v-768h-256zM256 0v256h768v512h-256v256h512v-1024h-1024zM256 1024v512h256v-512h-256zM1024 1280v256h256v-256h-256zM512 1536v256h512v-256h-512z" />
<glyph unicode="H" d="M0 0v768h256v-768h-256zM1024 0v768h-768v1024h256v-768h512v768h256v-1792h-256z" />
<glyph unicode="I" horiz-adv-x="1280" d="M0 0v256h256v768h256v-768h256v-256h-768zM512 1024v512h-256v256h768v-256h-256v-512h-256z" />
<glyph unicode="J" d="M256 0v256h512v-256h-512zM0 256v256h256v-256h-256zM768 256v768h256v-768h-256zM1024 1024v512h-512v256h768v-768h-256z" />
<glyph unicode="K" d="M0 0v768h256v-768h-256zM1024 0v768h256v-768h-256zM768 768v256h256v-256h-256zM768 1280v256h256v-256h-256zM256 768v1024h256v-512h256v-256h-256v-256h-256zM1024 1536v256h256v-256h-256z" />
<glyph unicode="L" d="M0 0v1024h256v-768h1024v-256h-1280zM256 1024v768h256v-768h-256z" />
<glyph unicode="M" horiz-adv-x="1792" d="M512 0v512h256v-512h-256zM0 0v768h256v-768h-256zM768 512v768h256v-768h-256zM256 768v1024h256v-256h256v-256h-256v-512h-256zM1280 0v1280h-256v512h512v-1792h-256z" />
<glyph unicode="N" d="M0 0v1024h256v-1024h-256zM512 768v256h-256v768h256v-512h256v-512h-256zM1024 0v256h-256v512h256v1024h256v-1792h-256z" />
<glyph unicode="O" d="M256 0v256h512v-256h-512zM768 256v256h256v-256h-256zM0 256v1024h256v-1024h-256zM256 1280v256h256v-256h-256zM1024 512v1024h256v-1024h-256zM512 1536v256h512v-256h-512z" />
<glyph unicode="P" d="M0 0v768h256v-768h-256zM1024 1024v512h256v-512h-256zM256 768v1024h768v-256h-512v-512h512v-256h-768z" />
<glyph unicode="Q" d="M768 -256v256h-512v256h256v256h512v-512h256v-256h-512zM0 256v1024h256v-1024h-256zM256 1280v256h256v-256h-256zM1024 512v1024h256v-1024h-256zM512 1536v256h512v-256h-512z" />
<glyph unicode="R" d="M0 0v768h256v-768h-256zM1024 0v768h256v-768h-256zM1024 1024v512h256v-512h-256zM256 768v1024h768v-256h-512v-512h512v-256h-768z" />
<glyph unicode="S" d="M256 0v256h768v-256h-768zM0 256v256h256v-256h-256zM1024 256v512h256v-512h-256zM512 768v256h512v-256h-512zM256 1024v512h256v-512h-256zM1024 1280v256h256v-256h-256zM512 1536v256h512v-256h-512z" />
<glyph unicode="T" d="M256 0v768h256v-768h-256zM512 768v768h-512v256h1280v-256h-512v-768h-256z" />
<glyph unicode="U" d="M256 0v256h512v-256h-512zM768 256v512h256v-512h-256zM0 256v768h256v-768h-256zM256 1024v768h256v-768h-256zM1024 768v1024h256v-1024h-256z" />
<glyph unicode="V" d="M256 0v256h256v-256h-256zM512 256v256h256v-256h-256zM768 512v512h256v-512h-256zM0 256v1536h256v-1536h-256zM1024 1024v768h256v-768h-256z" />
<glyph unicode="W" d="M768 0v512h-256v1024h256v-768h256v-768h-256zM0 0v1792h256v-1280h256v-512h-512zM1024 768v1024h256v-1024h-256z" />
<glyph unicode="X" d="M0 0v512h256v-512h-256zM1024 0v512h256v-512h-256zM256 512v256h256v-256h-256zM768 512v256h256v-256h-256zM512 768v256h256v-256h-256zM768 1024v256h256v-256h-256zM256 1024v768h256v-768h-256zM1024 1280v512h256v-512h-256z" />
<glyph unicode="Y" horiz-adv-x="1280" d="M256 0v1024h256v-1024h-256zM512 1024v256h256v-256h-256zM0 1024v768h256v-768h-256zM768 1280v512h256v-512h-256z" />
<glyph unicode="Z" d="M0 0v768h256v-512h768v-256h-1024zM256 768v256h256v-256h-256zM512 1024v256h512v-256h-512zM1024 1280v256h-768v256h1024v-512h-256z" />
<glyph unicode="a" d="M0 256v256h256v-256h-256zM256 0v256h512v256h-512v256h768v-512h256v-256h-1024zM1024 768v256h256v-256h-256zM512 1024v256h512v-256h-512z" />
<glyph unicode="b" horiz-adv-x="1280" d="M0 0v768h256v-512h512v-256h-768zM768 256v512h256v-512h-256zM256 768v768h256v-512h256v-256h-512z" />
<glyph unicode="c" horiz-adv-x="1280" d="M256 0v256h512v-256h-512zM0 256v512h256v-512h-256zM256 768v256h256v-256h-256zM768 768v256h256v-256h-256zM512 1024v256h256v-256h-256z" />
<glyph unicode="d" horiz-adv-x="1280" d="M0 0v768h256v-512h256v512h-256v256h512v-768h256v-256h-1024zM768 1024v512h256v-512h-256z" />
<glyph unicode="e" horiz-adv-x="1280" d="M0 0v768h256v512h512v-256h-256v-256h256v256h256v-512h-768v-256h768v-256h-1024z" />
<glyph unicode="f" d="M256 0v768h-256v256h512v512h256v-512h512v-256h-768v-768h-256zM1024 1280v256h256v-256h-256zM768 1536v256h256v-256h-256z" />
<glyph unicode="g" horiz-adv-x="1792" d="M256 -256v256h512v-256h-512zM0 0v256h256v-256h-256zM768 0v256h-512v768h256v-512h512v512h256v-512h256v-256h-512v-256h-256zM512 1024v256h512v-256h-512z" />
<glyph unicode="h" horiz-adv-x="1280" d="M0 0v768h256v-768h-256zM768 0v768h256v-768h-256zM256 768v1024h256v-768h256v-256h-512z" />
<glyph unicode="i" horiz-adv-x="768" d="M0 0v768h256v-768h-256zM256 768v256h256v-256h-256zM256 1280v256h256v-256h-256z" />
<glyph unicode="j" d="M256 -256v256h512v-256h-512zM0 0v256h256v-256h-256zM768 0v512h256v-512h-256zM1024 512v512h256v-512h-256zM1024 1280v256h256v-256h-256z" />
<glyph unicode="k" horiz-adv-x="1280" d="M768 0v256h256v-256h-256zM512 256v256h256v-256h-256zM768 1024v256h256v-256h-256zM0 0v768h256v1024h256v-768h256v-256h-256v-256h-256v-512h-256z" />
<glyph unicode="l" horiz-adv-x="768" d="M0 0v1024h256v-1024h-256zM256 1024v768h256v-768h-256z" />
<glyph unicode="m" d="M0 0v768h256v-768h-256zM1024 0v1024h256v-1024h-256zM512 0v768h-256v512h256v-256h256v-1024h-256zM768 1024v256h256v-256h-256z" />
<glyph unicode="n" horiz-adv-x="1280" d="M0 0v768h256v-768h-256zM768 0v1024h256v-1024h-256zM256 768v512h512v-256h-256v-256h-256z" />
<glyph unicode="o" horiz-adv-x="1280" d="M256 0v256h512v-256h-512zM0 256v512h256v-512h-256zM256 768v256h256v-256h-256zM768 256v768h256v-768h-256zM512 1024v256h256v-256h-256z" />
<glyph unicode="p" horiz-adv-x="1280" d="M0 -256v768h256v-256h512v-256h-512v-256h-256zM768 256v768h256v-768h-256zM256 512v768h512v-256h-256v-512h-256z" />
<glyph unicode="q" horiz-adv-x="1280" d="M512 -256v512h-512v512h256v-256h512v-512h256v-256h-512zM768 512v256h-512v256h768v-512h-256z" />
<glyph unicode="r" horiz-adv-x="1280" d="M0 0v768h256v-768h-256zM256 768v512h256v-256h512v-256h-768z" />
<glyph unicode="s" horiz-adv-x="1280" d="M0 0v256h768v-256h-768zM768 256v256h256v-256h-256zM256 512v512h256v-256h256v-256h-512zM512 1024v256h512v-256h-512z" />
<glyph unicode="t" horiz-adv-x="1280" d="M256 0v768h-256v256h512v512h256v-512h256v-256h-512v-512h512v-256h-768z" />
<glyph unicode="u" horiz-adv-x="1280" d="M256 0v256h512v-256h-512zM0 256v1024h256v-1024h-256zM768 256v1024h256v-1024h-256z" />
<glyph unicode="v" horiz-adv-x="1280" d="M512 256v512h256v-512h-256zM0 0v1280h256v-1024h256v-256h-512zM768 768v512h256v-512h-256z" />
<glyph unicode="w" d="M0 0v1280h256v-768h256v768h256v-512h256v512h256v-768h-256v-512h-256v256h-256v-256h-512z" />
<glyph unicode="x" horiz-adv-x="1280" d="M0 0v512h256v-512h-256zM768 0v512h256v-512h-256zM256 512v768h256v-512h256v-256h-512zM768 768v512h256v-512h-256z" />
<glyph unicode="y" d="M256 -256v256h512v-256h-512zM0 0v256h256v-256h-256zM256 512v512h256v-512h-256zM768 0v256h-256v256h512v768h256v-1024h-256v-256h-256z" />
<glyph unicode="z" horiz-adv-x="1280" d="M0 0v512h256v-256h768v-256h-1024zM256 512v256h512v-256h-512zM768 768v256h-768v256h1024v-512h-256z" />
<glyph unicode="&#xad;" horiz-adv-x="1280" d="M0 512v256h1024v-256h-1024z" />
<glyph unicode="&#xdf;" d="M512 0v256h512v-256h-512zM0 0v768h256v-768h-256zM1024 256v512h256v-512h-256zM768 768v256h256v-256h-256zM256 768v768h256v-768h-256zM1024 1024v512h256v-512h-256zM512 1536v256h512v-256h-512z" />
<glyph unicode="&#xe0;" d="M256 0v256h512v-256h-512zM1024 0v256h256v-256h-256zM0 256v256h256v-256h-256zM256 512v256h256v-256h-256zM768 256v512h-256v256h512v-768h-256zM768 1280v256h256v-256h-256zM512 1536v256h256v-256h-256z" />
<glyph unicode="&#xe2;" d="M256 0v256h512v-256h-512zM1024 0v256h256v-256h-256zM0 256v256h256v-256h-256zM256 512v256h256v-256h-256zM768 256v512h-256v256h512v-768h-256zM256 1280v256h256v-256h-256zM768 1280v256h256v-256h-256zM512 1536v256h256v-256h-256z" />
<glyph unicode="&#xe4;" d="M0 256v256h256v-256h-256zM256 0v256h512v256h-512v256h768v-512h256v-256h-1024zM1024 768v256h256v-256h-256zM512 1024v256h512v-256h-512zM512 1536v256h256v-256h-256zM1024 1536v256h256v-256h-256z" />
<glyph unicode="&#xe8;" horiz-adv-x="1280" d="M0 0v768h256v512h512v-256h-256v-256h256v256h256v-512h-768v-256h768v-256h-1024zM768 1280v256h256v-256h-256zM512 1536v256h256v-256h-256z" />
<glyph unicode="&#xe9;" horiz-adv-x="1280" d="M0 0v768h256v256h256v-256h256v256h256v-512h-768v-256h768v-256h-1024zM512 1024v256h256v-256h-256zM256 1280v256h256v-256h-256zM512 1536v256h256v-256h-256z" />
<glyph unicode="&#xea;" d="M0 0v768h256v256h256v-256h256v256h256v-512h-768v-256h768v-256h-1024zM512 1024v256h256v-256h-256zM256 1280v256h256v-256h-256zM1024 1280v256h256v-256h-256zM512 1536v256h512v-256h-512z" />
<glyph unicode="&#xf4;" horiz-adv-x="1280" d="M256 0v256h512v-256h-512zM0 256v512h256v-512h-256zM768 256v512h256v-512h-256zM256 768v256h512v-256h-512zM0 1280v256h256v-256h-256zM768 1280v256h256v-256h-256zM256 1536v256h512v-256h-512z" />
<glyph unicode="&#xf6;" horiz-adv-x="1280" d="M256 0v256h512v-256h-512zM0 256v512h256v-512h-256zM256 768v256h256v-256h-256zM768 256v768h256v-768h-256zM512 1024v256h256v-256h-256zM256 1536v256h256v-256h-256zM768 1536v256h256v-256h-256z" />
<glyph unicode="&#xfc;" horiz-adv-x="1280" d="M256 0v256h256v256h256v-512h-512zM0 256v1024h256v-1024h-256zM768 512v768h256v-768h-256zM256 1536v256h256v-256h-256zM768 1536v256h256v-256h-256z" />
<glyph unicode="&#x2000;" horiz-adv-x="1024" />
<glyph unicode="&#x2001;" horiz-adv-x="2048" />
<glyph unicode="&#x2002;" horiz-adv-x="1024" />
<glyph unicode="&#x2003;" horiz-adv-x="2048" />
<glyph unicode="&#x2004;" horiz-adv-x="682" />
<glyph unicode="&#x2005;" horiz-adv-x="512" />
<glyph unicode="&#x2006;" horiz-adv-x="341" />
<glyph unicode="&#x2007;" horiz-adv-x="341" />
<glyph unicode="&#x2008;" horiz-adv-x="256" />
<glyph unicode="&#x2009;" horiz-adv-x="409" />
<glyph unicode="&#x200a;" horiz-adv-x="113" />
<glyph unicode="&#x2010;" horiz-adv-x="1280" d="M0 512v256h1024v-256h-1024z" />
<glyph unicode="&#x2011;" horiz-adv-x="1280" d="M0 512v256h1024v-256h-1024z" />
<glyph unicode="&#x2012;" horiz-adv-x="1280" d="M0 512v256h1024v-256h-1024z" />
<glyph unicode="&#x2013;" horiz-adv-x="1280" d="M0 512v256h1024v-256h-1024z" />
<glyph unicode="&#x2014;" horiz-adv-x="2304" d="M0 512v256h2048v-256h-2048z" />
<glyph unicode="&#x2018;" horiz-adv-x="768" d="M0 1024v256h256v-256h-256zM256 1280v256h-256v256h512v-512h-256z" />
<glyph unicode="&#x2019;" horiz-adv-x="768" d="M0 1024v256h256v-256h-256zM256 1280v256h-256v256h512v-512h-256z" />
<glyph unicode="&#x201c;" d="M0 1024v256h256v-256h-256zM768 1024v256h256v-256h-256zM256 1280v256h-256v256h512v-512h-256zM1024 1280v256h-256v256h512v-512h-256z" />
<glyph unicode="&#x201d;" d="M0 1024v256h256v-256h-256zM768 1024v256h256v-256h-256zM256 1280v256h-256v256h512v-512h-256zM1024 1280v256h-256v256h512v-512h-256z" />
<glyph unicode="&#x2026;" horiz-adv-x="3328" d="M0 512v512h512v-512h-512zM1280 512v512h512v-512h-512zM2560 512v512h512v-512h-512z" />
<glyph unicode="&#x202f;" horiz-adv-x="409" />
<glyph unicode="&#x205f;" horiz-adv-x="512" />
<glyph unicode="&#x25fc;" horiz-adv-x="1280" d="M0 1280h1280v-1280h-1280v1280z" />
</font>
</defs>
</svg>
